<mxfile host="app.diagrams.net" modified="2021-06-02T14:08:52.797Z" agent="5.0 (Macintosh; Intel Mac OS X 10_13_6) AppleWebKit/537.36 (KHTML, like Gecko) Chrome/89.0.4389.90 Safari/537.36" etag="U0SgYefJWE4E0OalWhqb" version="14.2.4" type="github" pages="2">
  <diagram id="EvhDeHY5fZbAF0S0uZ5Y" name="传统运维">
    <mxGraphModel dx="946" dy="557" grid="1" gridSize="10" guides="1" tooltips="1" connect="1" arrows="1" fold="1" page="1" pageScale="1" pageWidth="827" pageHeight="1169" math="0" shadow="0">
      <root>
        <mxCell id="0" />
        <mxCell id="1" parent="0" />
        <mxCell id="ZM2XBlYXUB-U1qWy9xb_-47" value="" style="rounded=0;whiteSpace=wrap;html=1;fontSize=14;" vertex="1" parent="1">
          <mxGeometry x="120" y="50" width="700" height="440" as="geometry" />
        </mxCell>
        <mxCell id="ZM2XBlYXUB-U1qWy9xb_-45" value="" style="edgeStyle=orthogonalEdgeStyle;rounded=0;orthogonalLoop=1;jettySize=auto;html=1;fontSize=14;" edge="1" parent="1" source="ZM2XBlYXUB-U1qWy9xb_-1">
          <mxGeometry relative="1" as="geometry">
            <mxPoint x="390" y="295" as="targetPoint" />
          </mxGeometry>
        </mxCell>
        <mxCell id="ZM2XBlYXUB-U1qWy9xb_-1" value="" style="rounded=1;whiteSpace=wrap;html=1;fillColor=#d5e8d4;strokeColor=#82b366;fontStyle=1" vertex="1" parent="1">
          <mxGeometry x="150" y="130" width="180" height="330" as="geometry" />
        </mxCell>
        <mxCell id="ZM2XBlYXUB-U1qWy9xb_-4" value="开发环境" style="text;html=1;strokeColor=none;fillColor=none;align=center;verticalAlign=middle;whiteSpace=wrap;rounded=0;fontSize=14;fontStyle=1" vertex="1" parent="1">
          <mxGeometry x="170" y="140" width="60" height="20" as="geometry" />
        </mxCell>
        <mxCell id="ZM2XBlYXUB-U1qWy9xb_-8" value="JAVA环境" style="rounded=0;whiteSpace=wrap;html=1;fillColor=#1ba1e2;strokeColor=#006EAF;fontColor=#ffffff;fontStyle=1" vertex="1" parent="1">
          <mxGeometry x="180" y="200" width="100" height="30" as="geometry" />
        </mxCell>
        <mxCell id="ZM2XBlYXUB-U1qWy9xb_-9" value="Maven环境" style="rounded=0;whiteSpace=wrap;html=1;fillColor=#1ba1e2;strokeColor=#006EAF;fontColor=#ffffff;fontStyle=1" vertex="1" parent="1">
          <mxGeometry x="180" y="240" width="100" height="30" as="geometry" />
        </mxCell>
        <mxCell id="ZM2XBlYXUB-U1qWy9xb_-10" value="后端程序" style="rounded=0;whiteSpace=wrap;html=1;fillColor=#1ba1e2;strokeColor=#006EAF;fontColor=#ffffff;fontStyle=1" vertex="1" parent="1">
          <mxGeometry x="180" y="280" width="100" height="30" as="geometry" />
        </mxCell>
        <mxCell id="ZM2XBlYXUB-U1qWy9xb_-24" value="Node环境" style="rounded=0;whiteSpace=wrap;html=1;fillColor=#1ba1e2;strokeColor=#006EAF;fontColor=#ffffff;fontStyle=1" vertex="1" parent="1">
          <mxGeometry x="180" y="360" width="100" height="30" as="geometry" />
        </mxCell>
        <mxCell id="ZM2XBlYXUB-U1qWy9xb_-25" value="Npm环境" style="rounded=0;whiteSpace=wrap;html=1;fillColor=#1ba1e2;strokeColor=#006EAF;fontColor=#ffffff;fontStyle=1" vertex="1" parent="1">
          <mxGeometry x="180" y="400" width="100" height="30" as="geometry" />
        </mxCell>
        <mxCell id="ZM2XBlYXUB-U1qWy9xb_-27" value="" style="rounded=1;whiteSpace=wrap;html=1;fillColor=#dae8fc;strokeColor=#6c8ebf;fontStyle=1" vertex="1" parent="1">
          <mxGeometry x="400" y="130" width="180" height="330" as="geometry" />
        </mxCell>
        <mxCell id="ZM2XBlYXUB-U1qWy9xb_-28" value="测试环境" style="text;html=1;strokeColor=none;fillColor=none;align=center;verticalAlign=middle;whiteSpace=wrap;rounded=0;fontSize=14;fontStyle=1" vertex="1" parent="1">
          <mxGeometry x="420" y="140" width="60" height="20" as="geometry" />
        </mxCell>
        <mxCell id="ZM2XBlYXUB-U1qWy9xb_-29" value="JAVA环境" style="rounded=0;whiteSpace=wrap;html=1;fillColor=#6d8764;strokeColor=#3A5431;fontColor=#ffffff;fontStyle=1" vertex="1" parent="1">
          <mxGeometry x="430" y="200" width="100" height="30" as="geometry" />
        </mxCell>
        <mxCell id="ZM2XBlYXUB-U1qWy9xb_-30" value="Maven环境" style="rounded=0;whiteSpace=wrap;html=1;fillColor=#6d8764;strokeColor=#3A5431;fontColor=#ffffff;fontStyle=1" vertex="1" parent="1">
          <mxGeometry x="430" y="240" width="100" height="30" as="geometry" />
        </mxCell>
        <mxCell id="ZM2XBlYXUB-U1qWy9xb_-31" value="后端程序" style="rounded=0;whiteSpace=wrap;html=1;fillColor=#6d8764;strokeColor=#3A5431;fontColor=#ffffff;fontStyle=1" vertex="1" parent="1">
          <mxGeometry x="430" y="280" width="100" height="30" as="geometry" />
        </mxCell>
        <mxCell id="ZM2XBlYXUB-U1qWy9xb_-33" value="Node环境" style="rounded=0;whiteSpace=wrap;html=1;fillColor=#6d8764;strokeColor=#3A5431;fontColor=#ffffff;fontStyle=1" vertex="1" parent="1">
          <mxGeometry x="430" y="360" width="100" height="30" as="geometry" />
        </mxCell>
        <mxCell id="ZM2XBlYXUB-U1qWy9xb_-34" value="Npm环境" style="rounded=0;whiteSpace=wrap;html=1;fillColor=#6d8764;strokeColor=#3A5431;fontColor=#ffffff;fontStyle=1" vertex="1" parent="1">
          <mxGeometry x="430" y="400" width="100" height="30" as="geometry" />
        </mxCell>
        <mxCell id="ZM2XBlYXUB-U1qWy9xb_-35" value="" style="rounded=1;whiteSpace=wrap;html=1;fillColor=#ffe6cc;strokeColor=#d79b00;fontStyle=1" vertex="1" parent="1">
          <mxGeometry x="630" y="130" width="180" height="330" as="geometry" />
        </mxCell>
        <mxCell id="ZM2XBlYXUB-U1qWy9xb_-36" value="生产环境" style="text;html=1;strokeColor=none;fillColor=none;align=center;verticalAlign=middle;whiteSpace=wrap;rounded=0;fontSize=14;fontStyle=1" vertex="1" parent="1">
          <mxGeometry x="650" y="140" width="60" height="20" as="geometry" />
        </mxCell>
        <mxCell id="ZM2XBlYXUB-U1qWy9xb_-37" value="JAVA环境" style="rounded=0;whiteSpace=wrap;html=1;fillColor=#76608a;strokeColor=#432D57;fontColor=#ffffff;fontStyle=1" vertex="1" parent="1">
          <mxGeometry x="660" y="200" width="100" height="30" as="geometry" />
        </mxCell>
        <mxCell id="ZM2XBlYXUB-U1qWy9xb_-38" value="Maven环境" style="rounded=0;whiteSpace=wrap;html=1;fillColor=#76608a;strokeColor=#432D57;fontColor=#ffffff;fontStyle=1" vertex="1" parent="1">
          <mxGeometry x="660" y="240" width="100" height="30" as="geometry" />
        </mxCell>
        <mxCell id="ZM2XBlYXUB-U1qWy9xb_-39" value="后端程序" style="rounded=0;whiteSpace=wrap;html=1;fillColor=#76608a;strokeColor=#432D57;fontColor=#ffffff;fontStyle=1" vertex="1" parent="1">
          <mxGeometry x="660" y="280" width="100" height="30" as="geometry" />
        </mxCell>
        <mxCell id="ZM2XBlYXUB-U1qWy9xb_-41" value="Node环境" style="rounded=0;whiteSpace=wrap;html=1;fillColor=#76608a;strokeColor=#432D57;fontColor=#ffffff;fontStyle=1" vertex="1" parent="1">
          <mxGeometry x="660" y="360" width="100" height="30" as="geometry" />
        </mxCell>
        <mxCell id="ZM2XBlYXUB-U1qWy9xb_-42" value="Npm环境" style="rounded=0;whiteSpace=wrap;html=1;fillColor=#76608a;strokeColor=#432D57;fontColor=#ffffff;fontStyle=1" vertex="1" parent="1">
          <mxGeometry x="660" y="400" width="100" height="30" as="geometry" />
        </mxCell>
        <mxCell id="ZM2XBlYXUB-U1qWy9xb_-46" value="" style="edgeStyle=orthogonalEdgeStyle;rounded=0;orthogonalLoop=1;jettySize=auto;html=1;fontSize=14;" edge="1" parent="1">
          <mxGeometry relative="1" as="geometry">
            <mxPoint x="580" y="294.5" as="sourcePoint" />
            <mxPoint x="630" y="295" as="targetPoint" />
            <Array as="points">
              <mxPoint x="610" y="295" />
              <mxPoint x="610" y="295" />
            </Array>
          </mxGeometry>
        </mxCell>
        <mxCell id="ZM2XBlYXUB-U1qWy9xb_-48" value="传统运维" style="text;html=1;strokeColor=none;fillColor=none;align=center;verticalAlign=middle;whiteSpace=wrap;rounded=0;fontSize=24;fontStyle=1" vertex="1" parent="1">
          <mxGeometry x="130" y="70" width="120" height="20" as="geometry" />
        </mxCell>
      </root>
    </mxGraphModel>
  </diagram>
  <diagram id="g7VsPvkkND2hu21L7Mze" name="Page-2">
    <mxGraphModel dx="946" dy="557" grid="1" gridSize="10" guides="1" tooltips="1" connect="1" arrows="1" fold="1" page="1" pageScale="1" pageWidth="827" pageHeight="1169" math="0" shadow="0">
      <root>
        <mxCell id="Yn0CWKEJnIjOf1zkw6iP-0" />
        <mxCell id="Yn0CWKEJnIjOf1zkw6iP-1" parent="Yn0CWKEJnIjOf1zkw6iP-0" />
        <mxCell id="NlbnKUUus0-ynInGM0pt-0" value="" style="rounded=0;whiteSpace=wrap;html=1;fontSize=14;" vertex="1" parent="Yn0CWKEJnIjOf1zkw6iP-1">
          <mxGeometry x="120" y="50" width="700" height="440" as="geometry" />
        </mxCell>
        <mxCell id="NlbnKUUus0-ynInGM0pt-1" value="" style="edgeStyle=orthogonalEdgeStyle;rounded=0;orthogonalLoop=1;jettySize=auto;html=1;fontSize=14;" edge="1" parent="Yn0CWKEJnIjOf1zkw6iP-1" source="NlbnKUUus0-ynInGM0pt-2">
          <mxGeometry relative="1" as="geometry">
            <mxPoint x="390" y="295" as="targetPoint" />
          </mxGeometry>
        </mxCell>
        <mxCell id="NlbnKUUus0-ynInGM0pt-2" value="" style="rounded=1;whiteSpace=wrap;html=1;fillColor=#d5e8d4;strokeColor=#82b366;fontStyle=1" vertex="1" parent="Yn0CWKEJnIjOf1zkw6iP-1">
          <mxGeometry x="150" y="130" width="180" height="330" as="geometry" />
        </mxCell>
        <mxCell id="NlbnKUUus0-ynInGM0pt-3" value="开发环境" style="text;html=1;strokeColor=none;fillColor=none;align=center;verticalAlign=middle;whiteSpace=wrap;rounded=0;fontSize=14;fontStyle=1" vertex="1" parent="Yn0CWKEJnIjOf1zkw6iP-1">
          <mxGeometry x="170" y="140" width="60" height="20" as="geometry" />
        </mxCell>
        <mxCell id="NlbnKUUus0-ynInGM0pt-4" value="JAVA环境" style="rounded=0;whiteSpace=wrap;html=1;fillColor=#1ba1e2;strokeColor=#006EAF;fontColor=#ffffff;fontStyle=1" vertex="1" parent="Yn0CWKEJnIjOf1zkw6iP-1">
          <mxGeometry x="180" y="200" width="100" height="30" as="geometry" />
        </mxCell>
        <mxCell id="NlbnKUUus0-ynInGM0pt-5" value="Maven环境" style="rounded=0;whiteSpace=wrap;html=1;fillColor=#1ba1e2;strokeColor=#006EAF;fontColor=#ffffff;fontStyle=1" vertex="1" parent="Yn0CWKEJnIjOf1zkw6iP-1">
          <mxGeometry x="180" y="240" width="100" height="30" as="geometry" />
        </mxCell>
        <mxCell id="NlbnKUUus0-ynInGM0pt-6" value="后端程序" style="rounded=0;whiteSpace=wrap;html=1;fillColor=#1ba1e2;strokeColor=#006EAF;fontColor=#ffffff;fontStyle=1" vertex="1" parent="Yn0CWKEJnIjOf1zkw6iP-1">
          <mxGeometry x="180" y="280" width="100" height="30" as="geometry" />
        </mxCell>
        <mxCell id="NlbnKUUus0-ynInGM0pt-7" value="Node环境" style="rounded=0;whiteSpace=wrap;html=1;fillColor=#1ba1e2;strokeColor=#006EAF;fontColor=#ffffff;fontStyle=1" vertex="1" parent="Yn0CWKEJnIjOf1zkw6iP-1">
          <mxGeometry x="180" y="360" width="100" height="30" as="geometry" />
        </mxCell>
        <mxCell id="NlbnKUUus0-ynInGM0pt-8" value="Npm环境" style="rounded=0;whiteSpace=wrap;html=1;fillColor=#1ba1e2;strokeColor=#006EAF;fontColor=#ffffff;fontStyle=1" vertex="1" parent="Yn0CWKEJnIjOf1zkw6iP-1">
          <mxGeometry x="180" y="400" width="100" height="30" as="geometry" />
        </mxCell>
        <mxCell id="NlbnKUUus0-ynInGM0pt-9" value="" style="rounded=1;whiteSpace=wrap;html=1;fillColor=#dae8fc;strokeColor=#6c8ebf;fontStyle=1" vertex="1" parent="Yn0CWKEJnIjOf1zkw6iP-1">
          <mxGeometry x="400" y="130" width="180" height="330" as="geometry" />
        </mxCell>
        <mxCell id="NlbnKUUus0-ynInGM0pt-10" value="测试环境" style="text;html=1;strokeColor=none;fillColor=none;align=center;verticalAlign=middle;whiteSpace=wrap;rounded=0;fontSize=14;fontStyle=1" vertex="1" parent="Yn0CWKEJnIjOf1zkw6iP-1">
          <mxGeometry x="420" y="140" width="60" height="20" as="geometry" />
        </mxCell>
        <mxCell id="NlbnKUUus0-ynInGM0pt-11" value="JAVA环境" style="rounded=0;whiteSpace=wrap;html=1;fillColor=#6d8764;strokeColor=#3A5431;fontColor=#ffffff;fontStyle=1" vertex="1" parent="Yn0CWKEJnIjOf1zkw6iP-1">
          <mxGeometry x="430" y="200" width="100" height="30" as="geometry" />
        </mxCell>
        <mxCell id="NlbnKUUus0-ynInGM0pt-12" value="Maven环境" style="rounded=0;whiteSpace=wrap;html=1;fillColor=#6d8764;strokeColor=#3A5431;fontColor=#ffffff;fontStyle=1" vertex="1" parent="Yn0CWKEJnIjOf1zkw6iP-1">
          <mxGeometry x="430" y="240" width="100" height="30" as="geometry" />
        </mxCell>
        <mxCell id="NlbnKUUus0-ynInGM0pt-13" value="后端程序" style="rounded=0;whiteSpace=wrap;html=1;fillColor=#6d8764;strokeColor=#3A5431;fontColor=#ffffff;fontStyle=1" vertex="1" parent="Yn0CWKEJnIjOf1zkw6iP-1">
          <mxGeometry x="430" y="280" width="100" height="30" as="geometry" />
        </mxCell>
        <mxCell id="NlbnKUUus0-ynInGM0pt-14" value="Node环境" style="rounded=0;whiteSpace=wrap;html=1;fillColor=#6d8764;strokeColor=#3A5431;fontColor=#ffffff;fontStyle=1" vertex="1" parent="Yn0CWKEJnIjOf1zkw6iP-1">
          <mxGeometry x="430" y="360" width="100" height="30" as="geometry" />
        </mxCell>
        <mxCell id="NlbnKUUus0-ynInGM0pt-15" value="Npm环境" style="rounded=0;whiteSpace=wrap;html=1;fillColor=#6d8764;strokeColor=#3A5431;fontColor=#ffffff;fontStyle=1" vertex="1" parent="Yn0CWKEJnIjOf1zkw6iP-1">
          <mxGeometry x="430" y="400" width="100" height="30" as="geometry" />
        </mxCell>
        <mxCell id="NlbnKUUus0-ynInGM0pt-16" value="" style="rounded=1;whiteSpace=wrap;html=1;fillColor=#ffe6cc;strokeColor=#d79b00;fontStyle=1" vertex="1" parent="Yn0CWKEJnIjOf1zkw6iP-1">
          <mxGeometry x="630" y="130" width="180" height="330" as="geometry" />
        </mxCell>
        <mxCell id="NlbnKUUus0-ynInGM0pt-17" value="生产环境" style="text;html=1;strokeColor=none;fillColor=none;align=center;verticalAlign=middle;whiteSpace=wrap;rounded=0;fontSize=14;fontStyle=1" vertex="1" parent="Yn0CWKEJnIjOf1zkw6iP-1">
          <mxGeometry x="650" y="140" width="60" height="20" as="geometry" />
        </mxCell>
        <mxCell id="NlbnKUUus0-ynInGM0pt-18" value="JAVA环境" style="rounded=0;whiteSpace=wrap;html=1;fillColor=#76608a;strokeColor=#432D57;fontColor=#ffffff;fontStyle=1" vertex="1" parent="Yn0CWKEJnIjOf1zkw6iP-1">
          <mxGeometry x="660" y="200" width="100" height="30" as="geometry" />
        </mxCell>
        <mxCell id="NlbnKUUus0-ynInGM0pt-19" value="Maven环境" style="rounded=0;whiteSpace=wrap;html=1;fillColor=#76608a;strokeColor=#432D57;fontColor=#ffffff;fontStyle=1" vertex="1" parent="Yn0CWKEJnIjOf1zkw6iP-1">
          <mxGeometry x="660" y="240" width="100" height="30" as="geometry" />
        </mxCell>
        <mxCell id="NlbnKUUus0-ynInGM0pt-20" value="后端程序" style="rounded=0;whiteSpace=wrap;html=1;fillColor=#76608a;strokeColor=#432D57;fontColor=#ffffff;fontStyle=1" vertex="1" parent="Yn0CWKEJnIjOf1zkw6iP-1">
          <mxGeometry x="660" y="280" width="100" height="30" as="geometry" />
        </mxCell>
        <mxCell id="NlbnKUUus0-ynInGM0pt-21" value="Node环境" style="rounded=0;whiteSpace=wrap;html=1;fillColor=#76608a;strokeColor=#432D57;fontColor=#ffffff;fontStyle=1" vertex="1" parent="Yn0CWKEJnIjOf1zkw6iP-1">
          <mxGeometry x="660" y="360" width="100" height="30" as="geometry" />
        </mxCell>
        <mxCell id="NlbnKUUus0-ynInGM0pt-22" value="Npm环境" style="rounded=0;whiteSpace=wrap;html=1;fillColor=#76608a;strokeColor=#432D57;fontColor=#ffffff;fontStyle=1" vertex="1" parent="Yn0CWKEJnIjOf1zkw6iP-1">
          <mxGeometry x="660" y="400" width="100" height="30" as="geometry" />
        </mxCell>
        <mxCell id="NlbnKUUus0-ynInGM0pt-23" value="" style="edgeStyle=orthogonalEdgeStyle;rounded=0;orthogonalLoop=1;jettySize=auto;html=1;fontSize=14;" edge="1" parent="Yn0CWKEJnIjOf1zkw6iP-1">
          <mxGeometry relative="1" as="geometry">
            <mxPoint x="580" y="294.5" as="sourcePoint" />
            <mxPoint x="630" y="295" as="targetPoint" />
            <Array as="points">
              <mxPoint x="610" y="295" />
              <mxPoint x="610" y="295" />
            </Array>
          </mxGeometry>
        </mxCell>
        <mxCell id="NlbnKUUus0-ynInGM0pt-24" value="引入Dcoker" style="text;html=1;strokeColor=none;fillColor=none;align=center;verticalAlign=middle;whiteSpace=wrap;rounded=0;fontSize=24;fontStyle=1" vertex="1" parent="Yn0CWKEJnIjOf1zkw6iP-1">
          <mxGeometry x="130" y="70" width="180" height="20" as="geometry" />
        </mxCell>
      </root>
    </mxGraphModel>
  </diagram>
</mxfile>
